<?xml version="1.0" standalone="no"?>
<!DOCTYPE svg PUBLIC "-//W3C//DTD SVG 20010904//EN"
 "http://www.w3.org/TR/2001/REC-SVG-20010904/DTD/svg10.dtd">
<svg version="1.0" xmlns="http://www.w3.org/2000/svg"
 width="500.000000pt" height="538.000000pt" viewBox="0 0 500.000000 538.000000"
 preserveAspectRatio="xMidYMid meet">

<g transform="translate(0.000000,538.000000) scale(0.100000,-0.100000)"
fill="#000000" stroke="none">
<path d="M4977 5353 c-2 -4 -44 -84 -92 -178 -48 -93 -88 -171 -89 -172 -1 -1
-6 9 -13 23 -10 21 -6 34 24 92 19 37 41 72 47 77 7 6 11 15 9 22 -2 6 5 14
17 18 12 4 19 12 17 18 -3 7 7 25 22 41 l26 29 -30 -20 c-28 -20 -69 -86 -195
-313 -46 -83 -209 -413 -234 -473 -28 -68 -2 -31 44 62 31 64 49 91 62 91 10
0 18 7 18 15 0 8 3 15 8 15 4 0 23 33 42 73 42 87 39 81 45 75 5 -5 -229 -467
-266 -526 -8 -12 -19 -18 -28 -14 -9 3 -13 1 -8 -3 4 -5 1 -15 -7 -24 -7 -9
-30 -59 -50 -111 -31 -84 -35 -90 -34 -55 0 22 11 67 24 100 42 111 83 318 84
427 0 9 3 9 11 -2 21 -30 -1 112 -26 167 -48 106 -191 206 -355 250 -90 24
-386 24 -520 0 -322 -59 -507 -153 -575 -292 -15 -30 -25 -60 -23 -67 2 -6 12
6 21 29 8 22 22 43 31 46 15 6 15 -4 2 -103 l-6 -45 14 47 c17 60 46 100 104
144 142 108 424 178 722 178 284 0 450 -70 518 -221 29 -64 23 -300 -11 -487
-16 -81 -27 -170 -25 -197 l3 -50 106 203 c436 833 580 1111 576 1115 -3 2 -7
1 -10 -4z m-202 -344 c-5 -15 -4 -19 4 -15 18 11 13 -1 -26 -74 -26 -47 -41
-66 -51 -62 -12 4 -12 7 3 18 10 7 14 18 9 25 -4 7 -3 10 4 5 7 -4 13 7 18 29
3 19 10 35 15 35 5 0 9 5 9 11 0 5 -5 7 -12 3 -6 -4 -3 5 8 19 23 32 27 33 19
6z m-122 -194 c-3 -9 -8 -14 -10 -11 -3 3 -2 9 2 15 9 16 15 13 8 -4z"/>
<path d="M125 5258 c14 -24 39 -68 55 -98 16 -30 43 -80 60 -110 59 -105 306
-606 357 -725 29 -66 53 -116 53 -111 0 5 -18 65 -40 135 -21 69 -51 167 -66
216 -16 50 -36 96 -46 103 -10 7 -18 19 -18 25 0 7 -9 18 -21 25 -12 7 -19 16
-16 18 3 3 -6 17 -19 31 -13 14 -69 109 -125 212 -131 240 -179 321 -191 321
-5 0 3 -19 17 -42z"/>
<path d="M123 5138 c35 -68 106 -203 157 -300 50 -98 94 -178 96 -178 6 0
-125 258 -228 451 -44 82 -82 149 -85 149 -3 0 24 -55 60 -122z"/>
<path d="M1025 5071 c-221 -36 -383 -150 -430 -299 l-7 -24 21 21 c34 34 44
27 37 -26 l-6 -48 13 40 c42 127 121 193 285 237 63 17 107 21 242 21 332 0
625 -80 755 -206 73 -71 85 -115 92 -334 5 -146 3 -177 -11 -213 -9 -24 -15
-44 -13 -47 3 -2 12 15 21 39 13 31 18 74 18 165 1 73 5 123 11 123 5 0 5 6
-2 13 -14 17 -4 28 17 19 15 -5 16 -4 2 13 -8 10 -10 16 -3 12 6 -4 13 -4 16
0 2 5 3 3 1 -3 -1 -6 2 -16 7 -21 6 -6 13 -41 16 -79 9 -112 16 -89 9 31 -11
192 -42 273 -134 356 -96 86 -236 143 -462 185 -146 27 -401 40 -495 25z"/>
<path d="M450 4510 c17 -33 33 -60 35 -60 3 0 -8 27 -25 60 -17 33 -33 60 -35
60 -3 0 8 -27 25 -60z"/>
<path d="M2740 4529 c0 -5 5 -7 10 -4 6 3 10 8 10 11 0 2 -4 4 -10 4 -5 0 -10
-5 -10 -11z"/>
<path d="M2111 4374 c0 -11 3 -14 6 -6 3 7 2 16 -1 19 -3 4 -6 -2 -5 -13z"/>
<path d="M656 4117 c21 -42 39 -75 41 -74 1 2 -7 34 -18 71 -11 37 -23 65 -26
62 -4 -3 -13 0 -20 6 -8 7 2 -23 23 -65z"/>
<path d="M1986 4165 c-9 -26 -7 -32 5 -12 6 10 9 21 6 23 -2 3 -7 -2 -11 -11z"/>
<path d="M2671 4164 c0 -11 3 -14 6 -6 3 7 2 16 -1 19 -3 4 -6 -2 -5 -13z"/>
<path d="M2740 4140 c0 -5 5 -10 10 -10 6 0 10 5 10 10 0 6 -4 10 -10 10 -5 0
-10 -4 -10 -10z"/>
<path d="M2672 4085 c0 -16 2 -22 5 -12 2 9 2 23 0 30 -3 6 -5 -1 -5 -18z"/>
<path d="M2740 4030 c0 -5 5 -10 11 -10 5 0 7 5 4 10 -3 6 -8 10 -11 10 -2 0
-4 -4 -4 -10z"/>
<path d="M2674 3920 c0 -58 1 -81 3 -52 2 28 2 76 0 105 -2 28 -3 5 -3 -53z"/>
<path d="M1881 3864 c0 -11 3 -14 6 -6 3 7 2 16 -1 19 -3 4 -6 -2 -5 -13z"/>
<path d="M1957 3866 c-4 -10 -4 -29 -1 -42 5 -21 3 -23 -12 -17 -18 7 -18 6
-2 -11 12 -11 17 -31 16 -57 -1 -30 -4 -36 -11 -24 -5 9 -6 23 -3 31 3 8 2 13
-3 9 -5 -3 -17 15 -27 40 -9 25 -19 44 -21 42 -2 -2 19 -67 46 -144 27 -77 51
-151 54 -164 4 -20 5 -19 6 8 1 26 4 30 22 26 38 -10 50 -46 60 -177 8 -106 7
-131 -6 -155 -11 -23 -12 -31 -2 -34 7 -3 5 -6 -6 -6 -9 -1 -16 -4 -16 -8 1
-5 0 -19 -1 -33 -2 -19 -4 -16 -11 15 -4 22 -9 58 -10 80 -1 26 -3 31 -6 15
-5 -35 202 -2840 227 -3080 9 -80 15 -100 38 -129 40 -50 58 -52 34 -5 -31 63
-35 90 -48 419 -5 139 -10 172 -23 182 -13 10 -13 12 -1 8 13 -4 14 6 11 67
-2 45 -6 66 -11 53 -6 -17 -7 -17 -12 7 -4 19 -1 25 9 21 7 -3 13 -1 13 5 0 5
-7 12 -15 16 -11 4 -15 19 -13 58 l1 53 8 -55 c9 -69 1 205 -11 395 -9 132
-15 219 -25 395 -3 41 -7 113 -10 160 -14 242 -28 592 -25 640 3 55 7 86 14
105 6 16 6 17 -3 5 -13 -19 -14 -9 -2 24 6 13 7 26 3 29 -4 2 -2 3 5 1 6 -1
19 6 29 17 12 14 14 19 5 17 -7 -2 -16 3 -18 10 -3 7 1 11 9 10 16 -4 17 11
25 269 4 148 2 199 -8 222 -9 20 -16 26 -21 18 -5 -8 -8 -5 -8 8 0 17 -2 17
-10 5 -8 -13 -11 -13 -19 -1 -5 7 -14 10 -20 7 -6 -4 -11 -2 -11 5 0 7 -6 20
-14 28 -14 15 -28 98 -41 241 -5 57 -30 141 -104 344 -13 37 -19 45 -24 32z
m243 -2312 c0 -8 -5 -12 -10 -9 -6 4 -8 11 -5 16 9 14 15 11 15 -7z m-1 -76
c-1 -43 -3 -47 -8 -23 -6 28 -3 75 5 75 2 0 3 -24 3 -52z m14 -167 c3 -55 1
-88 -4 -80 -8 13 -13 187 -5 178 2 -2 6 -46 9 -98z m7 -111 c0 -5 -4 -10 -10
-10 -5 0 -10 5 -10 10 0 6 5 10 10 10 6 0 10 -4 10 -10z m2 -55 c2 -19 0 -35
-4 -35 -4 0 -8 16 -8 35 0 19 2 35 4 35 2 0 6 -16 8 -35z m8 -70 c0 -8 -2 -15
-4 -15 -2 0 -6 7 -10 15 -3 8 -1 15 4 15 6 0 10 -7 10 -15z m2 -92 c2 -23 0
-39 -4 -37 -5 3 -7 29 -7 57 1 56 6 48 11 -20z m15 -255 c-3 -8 -6 -5 -6 6 -1
11 2 17 5 13 3 -3 4 -12 1 -19z m10 -140 c-3 -8 -6 -5 -6 6 -1 11 2 17 5 13 3
-3 4 -12 1 -19z"/>
<path d="M3081 3769 c-11 -34 -19 -64 -17 -66 2 -2 13 24 25 58 11 34 19 64
17 66 -2 2 -13 -24 -25 -58z"/>
<path d="M2673 3730 c0 -47 2 -66 4 -42 2 23 2 61 0 85 -2 23 -4 4 -4 -43z"/>
<path d="M3031 3629 c-11 -34 -19 -64 -17 -66 2 -2 13 24 25 58 11 34 19 64
17 66 -2 2 -13 -24 -25 -58z"/>
<path d="M2668 3519 c-2 -68 -1 -886 2 -1818 l5 -1694 33 37 c39 44 41 54 6
32 l-25 -17 7 223 c5 123 8 305 8 405 -1 100 3 180 8 177 12 -7 10 3 -4 26
-11 17 -10 22 2 30 12 8 12 10 1 10 -12 0 -13 108 -7 733 9 851 10 884 18 892
3 3 3 -254 1 -572 -3 -318 -3 -576 0 -573 2 3 8 187 12 410 6 355 10 507 18
600 1 14 7 28 12 32 6 5 5 8 -3 8 -10 0 -10 5 -1 21 6 12 9 32 6 46 -6 30 16
96 29 86 5 -5 0 3 -11 16 -19 23 -19 24 -1 18 15 -6 17 -3 13 12 -5 21 18 49
30 37 3 -3 1 -6 -5 -6 -7 0 -12 -12 -12 -27 1 -25 2 -26 11 -9 6 10 12 37 14
60 2 22 6 52 9 66 3 14 9 48 12 75 3 28 7 60 9 72 2 12 7 73 10 135 6 102 5
115 -11 133 -21 23 -54 32 -54 15 0 -6 -5 -8 -10 -5 -6 4 -8 11 -5 16 4 5 0 9
-8 9 -18 0 -23 13 -26 69 -3 67 -15 73 -21 11 -6 -51 -7 -53 -17 -30 -7 14
-12 21 -13 15 -1 -5 -7 9 -15 33 -8 25 -13 94 -13 173 -1 72 -3 133 -6 136 -3
3 -6 -50 -8 -118z m62 -931 c0 -18 -2 -20 -9 -8 -6 8 -7 18 -5 22 9 14 14 9
14 -14z"/>
<path d="M2003 3455 c0 -27 2 -38 4 -22 2 15 2 37 0 50 -2 12 -4 0 -4 -28z"/>
<path d="M2013 3340 c0 -30 2 -43 4 -27 2 15 2 39 0 55 -2 15 -4 2 -4 -28z"/>
<path d="M2330 3256 c0 -13 -35 -30 -54 -27 -10 2 -1 -528 10 -569 3 -14 8
-69 10 -123 2 -54 6 -108 8 -120 3 -12 5 -31 6 -42 2 -17 3 -16 10 5 l8 25 1
-27 c1 -15 -3 -30 -9 -33 -5 -3 -10 -11 -10 -16 0 -6 4 -8 9 -4 6 3 12 -14 14
-37 2 -24 4 188 5 470 1 281 0 512 -3 512 -3 0 -5 -6 -5 -14z m-3 -833 c-3
-10 -5 -4 -5 12 0 17 2 24 5 18 2 -7 2 -21 0 -30z"/>
<path d="M2907 3170 c-9 -111 -17 -304 -11 -265 8 52 12 57 33 45 12 -6 21
-23 23 -43 2 -17 7 23 12 90 4 67 5 132 1 145 -5 18 -4 20 4 8 8 -11 10 -6 9
25 0 24 -2 31 -5 17 -4 -23 -5 -23 -24 -6 -10 9 -20 13 -20 8 -1 -5 -5 7 -8
26 -6 28 -8 19 -14 -50z"/>
<path d="M2942 2810 c0 -19 2 -27 5 -17 2 9 2 25 0 35 -3 9 -5 1 -5 -18z"/>
<path d="M2712 1173 c2 -140 5 -123 10 45 2 50 0 92 -4 92 -5 0 -7 -62 -6
-137z"/>
</g>
</svg>
