<?xml version="1.0" encoding="utf-8"?>
<svg width="512px" height="512px" viewBox="0 0 512 512" xmlns="http://www.w3.org/2000/svg">
  <path fill="#000" d="M 297.441 23.175 C 198.143 23.175 101.513 127.822 81.611 256.911 C 74.537 302.798 78.118 345.591 90.123 381.698 C 86.041 375.291 82.203 368.608 78.656 361.664 C 62.14 329.329 54.029 296.286 53.656 265.392 C 41.916 301.646 45.573 347.862 68.138 392.035 C 95.838 446.262 149.701 483.975 208.008 489.537 C 213.666 490.262 219.455 490.645 225.372 490.645 C 324.67 490.645 421.302 385.998 441.202 256.909 C 450.482 196.713 441.432 141.837 419.069 100.403 C 440.694 122.27 455.629 146.189 463.686 169.899 C 464.309 139.491 449.622 104.133 419.476 74.093 C 385.758 40.495 342.249 23.183 304.481 23.37 C 302.153 23.252 299.811 23.173 297.441 23.173 L 297.441 23.175 Z M 291.841 59.532 C 332.064 59.532 365.491 79.874 387.543 113.065 C 403.458 155.953 400.053 221.38 388.523 260.923 C 372.503 315.867 353.474 366.082 308.753 387.03 C 240.26 419.114 149.357 391.562 166.113 358.784 C 167.355 356.354 152.928 367.999 164.642 388.29 C 203.344 434.213 278.685 427.176 321.361 395.247 C 359.311 366.855 393.681 321.697 410.717 263.259 C 411.982 258.919 413.133 254.582 414.184 250.251 C 413.898 252.469 413.594 254.693 413.25 256.929 C 396.443 365.949 314.838 454.325 230.978 454.325 C 195.334 454.325 165.024 438.35 143.238 411.615 C 116.746 363.219 127.25 269.532 147.913 226.465 C 174.658 170.723 214.046 103.695 282.237 109.661 C 328.267 113.688 345.335 168.298 321.365 225.881 C 312.755 246.566 300.173 265.195 285.155 280.194 C 310.065 263.594 331.875 238.064 344.727 207.194 C 368.697 149.611 351.667 93.772 305.597 90.389 C 219.86 84.093 167.959 148.939 128.055 218.874 C 118.845 238.774 111.873 259.224 107.078 279.581 C 107.572 272.146 108.39 264.591 109.571 256.929 C 126.375 147.909 207.98 59.532 291.84 59.532 L 291.841 59.532 Z"/>
</svg>